# xmcd
#
# Track frame offsets:
#	150
#	11572
#	28242
#	41965
#	53275
#	66390
#	76040
#	87072
#	103162
#	120727
#	132822
#	142627
#	158327
#	168427
#	180282
#
# Disc length: 2767 seconds
#
# Revision: 0
# Processed by: cddbd v1.5.1PL0 Copyright (c) Steve Scherf et al.
# Submitted via: dBpowerAMP V4.0
#
DISCID=ae0acd0f
DTITLE=Various Artist - Country Love Classics [CD Two)
DYEAR=1900
DGENRE=Country
TTITLE0=Help Me Make It Through The Night - Sammi Smith
TTITLE1=Maggie - Col Joye
TTITLE2=Another Sleepless Night - Anne Murray
TTITLE3=Country Girl - Faron Young
TTITLE4=Rose Garden - Lynne Anderson
TTITLE5=Let's Pretend - Willie Nelson
TTITLE6=Say It's Not You - George Jones
TTITLE7=Crying - Gary Puckett
TTITLE8=Garden Party - Rick Nelson
TTITLE9=Breathless - Mickey Gilley
TTITLE10=Ballad Of A Teenage Queen - Johnny Cash
TTITLE11=Will The Circle Be Unbroken - Boxcar Willie
TTITLE12=He'll Have To Go - Jim Reeves
TTITLE13=Stay Asleep - Patsy Cline
TTITLE14=I.O.U. - Jimmy Dean
EXTD=
EXTT0=
EXTT1=
EXTT2=
EXTT3=
EXTT4=
EXTT5=
EXTT6=
EXTT7=
EXTT8=
EXTT9=
EXTT10=
EXTT11=
EXTT12=
EXTT13=
EXTT14=
PLAYORDER=
